<svg xmlns="http://www.w3.org/2000/svg" viewBox="0 0 1280 800" role="img" aria-label="Simnote, CSV export, trigger (placeholder)" font-family="IBM Plex Sans, -apple-system, sans-serif">
  <rect width="1280" height="800" fill="#161616"/>

  <text x="64" y="80" font-size="11" fill="#78a9ff" font-family="IBM Plex Mono, monospace" letter-spacing="1.5">— SESSION CAPTURE</text>
  <text x="64" y="124" font-size="32" fill="#f4f4f4" font-weight="300">.simnote  ·  CSV export  ·  trigger</text>
  <line x1="64" y1="160" x2="1216" y2="160" stroke="#393939"/>

  <!-- left: simnote -->
  <g>
    <rect x="64" y="192" width="560" height="544" fill="#262626"/>
    <text x="84" y="220" font-size="11" fill="#78a9ff" font-family="IBM Plex Mono, monospace">SIMNOTE</text>
    <text x="84" y="252" font-size="22" fill="#f4f4f4" font-weight="400">session_2026-04-18.simnote</text>

    <rect x="84" y="272" width="520" height="220" fill="#161616"/>
    <text x="100" y="294" font-size="10" fill="#6f6f6f" font-family="IBM Plex Mono, monospace">PREVIEW</text>
    <g stroke="#393939">
      <line x1="84" y1="380" x2="604" y2="380"/>
      <line x1="344" y1="272" x2="344" y2="492"/>
    </g>
    <path d="M 100,400 Q 160,290 220,400 T 340,400 T 460,400 T 595,400" fill="none" stroke="#78a9ff" stroke-width="1.5"/>
    <path d="M 100,420 Q 160,490 220,420 T 340,420 T 460,420 T 595,420" fill="none" stroke="#08bdba" stroke-width="1.5"/>

    <text x="84" y="528" font-size="11" fill="#78a9ff" font-family="IBM Plex Mono, monospace">MEMO</text>
    <rect x="84" y="540" width="520" height="100" fill="#161616"/>
    <g font-size="12" fill="#c6c6c6" font-family="IBM Plex Mono, monospace">
      <text x="100" y="562">Step-load test, 50% → 100% at t=2.0s</text>
      <text x="100" y="584">Observed overshoot 6.4% on i_load</text>
      <text x="100" y="606">(within spec). Refer to ticket PWR-1042.</text>
    </g>

    <text x="84" y="668" font-size="11" fill="#78a9ff" font-family="IBM Plex Mono, monospace">ARCHIVE CONTENTS</text>
    <g font-size="11" fill="#a8a8a8" font-family="IBM Plex Mono, monospace">
      <text x="84" y="688">metadata.json</text>
      <text x="84" y="704">memo.txt</text>
      <text x="84" y="720">preview.png</text>
      <text x="364" y="688">trace_index.json</text>
      <text x="364" y="704">traces.npz</text>
    </g>
  </g>

  <!-- right top: CSV -->
  <g>
    <rect x="656" y="192" width="560" height="260" fill="#262626"/>
    <text x="676" y="220" font-size="11" fill="#78a9ff" font-family="IBM Plex Mono, monospace">CSV EXPORT</text>
    <text x="676" y="248" font-size="18" fill="#f4f4f4" font-weight="400">Pause → pick signals → save</text>

    <rect x="676" y="266" width="520" height="170" fill="#161616"/>
    <g font-size="11" fill="#c6c6c6" font-family="IBM Plex Mono, monospace">
      <text x="692" y="290">t,v_ac_a,v_ac_b,v_ac_c,i_load</text>
      <text x="692" y="310">0.000000,  0.000,  0.000,  0.000,  0.000</text>
      <text x="692" y="330">0.000050,  0.314, -0.157, -0.157,  0.000</text>
      <text x="692" y="350">0.000100,  0.628, -0.314, -0.314,  0.000</text>
      <text x="692" y="370">0.000150,  0.940, -0.470, -0.470,  0.001</text>
      <text x="692" y="390">0.000200,  1.249, -0.624, -0.624,  0.001</text>
      <text x="692" y="410">...</text>
    </g>
  </g>

  <!-- right bottom: trigger -->
  <g>
    <rect x="656" y="476" width="560" height="260" fill="#262626"/>
    <text x="676" y="504" font-size="11" fill="#78a9ff" font-family="IBM Plex Mono, monospace">TRIGGER</text>
    <text x="676" y="532" font-size="18" fill="#f4f4f4" font-weight="400">Rising / Falling / Single-shot</text>

    <rect x="676" y="552" width="520" height="170" fill="#161616"/>
    <g stroke="#393939">
      <line x1="676" y1="638" x2="1196" y2="638"/>
      <line x1="676" y1="600" x2="1196" y2="600"/>
      <line x1="676" y1="676" x2="1196" y2="676"/>
      <line x1="836" y1="552" x2="836" y2="722"/>
      <line x1="996" y1="552" x2="996" y2="722"/>
    </g>
    <path d="M 690,672 Q 760,580 836,672 T 980,672 T 1130,672 T 1190,672" fill="none" stroke="#78a9ff" stroke-width="1.5"/>
    <line x1="836" y1="552" x2="836" y2="722" stroke="#f1c21b" stroke-dasharray="2 4" stroke-width="1"/>
    <text x="844" y="568" font-size="10" fill="#f1c21b" font-family="IBM Plex Mono, monospace">▼ level 0.0</text>
  </g>

  <text x="640" y="780" font-size="10" fill="#525252" text-anchor="middle" font-family="IBM Plex Mono, monospace" letter-spacing="2">— PLACEHOLDER · REPLACE WITH REAL FIGURE —</text>
</svg>
